<svg version="1.1" xmlns="http://www.w3.org/2000/svg" xmlns:xlink="http://www.w3.org/1999/xlink" x="0px" y="0px" width="915.334px" height="352.667px" viewBox="-32.554 126.807 915.334 352.667" style="enable-background:new -32.554 126.807 915.334 352.667;" xml:space="preserve">
<g id="background">
	<g>
		
			<image style="overflow:visible;" width="959" height="391" xlink:href="C0BB39EE.png"  transform="matrix(1 0 0 1 -58.5552 101.1401)">
		</image>
		<g>
			<polygon style="fill:#002040;" points="19.757,251.184 19.757,413.393 749.222,413.393 822.132,342.223 822.132,180.014 
				92.667,180.014 			"/>
		</g>
	</g>
</g>
<g id="lines">
	<g>
		<line style="fill:#808080;" x1="18.257" y1="406.14" x2="754.987" y2="406.14"/>
		<rect x="18.257" y="405.64" style="fill:#808080;" width="736.729" height="1"/>
	</g>
	<g>
		<line style="fill:#808080;" x1="18.257" y1="400.471" x2="762.445" y2="400.471"/>
		<rect x="18.257" y="399.971" style="fill:#808080;" width="744.188" height="1"/>
	</g>
	<g>
		<line style="fill:#808080;" x1="18.257" y1="394.801" x2="768.445" y2="394.801"/>
		<rect x="18.257" y="394.301" style="fill:#808080;" width="750.188" height="1"/>
	</g>
	<g>
		<line style="fill:#808080;" x1="18.257" y1="389.132" x2="774.112" y2="389.132"/>
		<rect x="18.257" y="388.632" style="fill:#808080;" width="755.854" height="1"/>
	</g>
	<g>
		<line style="fill:#808080;" x1="18.257" y1="383.463" x2="780.445" y2="383.463"/>
		<rect x="18.257" y="382.963" style="fill:#808080;" width="762.188" height="1"/>
	</g>
	<g>
		<line style="fill:#808080;" x1="18.257" y1="377.793" x2="785.945" y2="377.793"/>
		<rect x="18.257" y="377.293" style="fill:#808080;" width="767.688" height="1"/>
	</g>
	<g>
		<line style="fill:#808080;" x1="18.257" y1="372.125" x2="790.997" y2="372.125"/>
		<rect x="18.257" y="371.625" style="fill:#808080;" width="772.739" height="1"/>
	</g>
	<g>
		<line style="fill:#808080;" x1="18.257" y1="366.455" x2="796.732" y2="366.455"/>
		<rect x="18.257" y="365.955" style="fill:#808080;" width="778.475" height="1"/>
	</g>
	<g>
		<line style="fill:#808080;" x1="18.257" y1="360.786" x2="802.278" y2="360.786"/>
		<rect x="18.257" y="360.286" style="fill:#808080;" width="784.021" height="1"/>
	</g>
	<g>
		<line style="fill:#808080;" x1="18.257" y1="355.117" x2="808.445" y2="355.117"/>
		<rect x="18.257" y="354.617" style="fill:#808080;" width="790.188" height="1"/>
	</g>
	<g>
		<line style="fill:#808080;" x1="18.257" y1="349.447" x2="814.276" y2="349.447"/>
		<rect x="18.257" y="348.947" style="fill:#808080;" width="796.019" height="1"/>
	</g>
	<g>
		<line style="fill:#808080;" x1="18.257" y1="343.778" x2="819.945" y2="343.778"/>
		<rect x="18.257" y="343.278" style="fill:#808080;" width="801.688" height="1"/>
	</g>
	<g>
		<line style="fill:#808080;" x1="18.257" y1="338.109" x2="822.612" y2="338.109"/>
		<rect x="18.257" y="337.609" style="fill:#808080;" width="804.354" height="1"/>
	</g>
	<g>
		<line style="fill:#808080;" x1="18.257" y1="332.439" x2="821.778" y2="332.439"/>
		<rect x="18.257" y="331.939" style="fill:#808080;" width="803.521" height="1"/>
	</g>
	<g>
		<line style="fill:#808080;" x1="18.257" y1="326.77" x2="821.778" y2="326.77"/>
		<rect x="18.257" y="326.27" style="fill:#808080;" width="803.521" height="1"/>
	</g>
	<g>
		<line style="fill:#808080;" x1="18.257" y1="321.101" x2="821.778" y2="321.101"/>
		<rect x="18.257" y="320.601" style="fill:#808080;" width="803.521" height="1"/>
	</g>
	<g>
		<line style="fill:#808080;" x1="18.257" y1="315.431" x2="821.778" y2="315.431"/>
		<rect x="18.257" y="314.931" style="fill:#808080;" width="803.521" height="1"/>
	</g>
	<g>
		<line style="fill:#808080;" x1="18.257" y1="309.762" x2="821.778" y2="309.762"/>
		<rect x="18.257" y="309.262" style="fill:#808080;" width="803.521" height="1"/>
	</g>
	<g>
		<line style="fill:#808080;" x1="18.257" y1="304.093" x2="821.778" y2="304.093"/>
		<rect x="18.257" y="303.593" style="fill:#808080;" width="803.521" height="1"/>
	</g>
	<g>
		<line style="fill:#808080;" x1="18.257" y1="298.423" x2="821.778" y2="298.423"/>
		<rect x="18.257" y="297.923" style="fill:#808080;" width="803.521" height="1"/>
	</g>
	<g>
		<line style="fill:#808080;" x1="18.257" y1="292.754" x2="821.778" y2="292.754"/>
		<rect x="18.257" y="292.254" style="fill:#808080;" width="803.521" height="1"/>
	</g>
	<g>
		<line style="fill:#808080;" x1="18.257" y1="287.085" x2="821.778" y2="287.085"/>
		<rect x="18.257" y="286.585" style="fill:#808080;" width="803.521" height="1"/>
	</g>
	<g>
		<line style="fill:#808080;" x1="18.257" y1="281.416" x2="821.778" y2="281.416"/>
		<rect x="18.257" y="280.916" style="fill:#808080;" width="803.521" height="1"/>
	</g>
	<g>
		<line style="fill:#808080;" x1="18.257" y1="275.747" x2="821.778" y2="275.747"/>
		<rect x="18.257" y="275.247" style="fill:#808080;" width="803.521" height="1"/>
	</g>
	<g>
		<line style="fill:#808080;" x1="18.257" y1="270.077" x2="821.778" y2="270.077"/>
		<rect x="18.257" y="269.577" style="fill:#808080;" width="803.521" height="1"/>
	</g>
	<g>
		<line style="fill:#808080;" x1="18.257" y1="264.408" x2="821.778" y2="264.408"/>
		<rect x="18.257" y="263.908" style="fill:#808080;" width="803.521" height="1"/>
	</g>
	<g>
		<line style="fill:#808080;" x1="18.257" y1="258.739" x2="821.778" y2="258.739"/>
		<rect x="18.257" y="258.239" style="fill:#808080;" width="803.521" height="1"/>
	</g>
	<g>
		<line style="fill:#808080;" x1="18.257" y1="253.069" x2="821.778" y2="253.069"/>
		<rect x="18.257" y="252.569" style="fill:#808080;" width="803.521" height="1"/>
	</g>
	<g>
		<line style="fill:#808080;" x1="23.945" y1="247.4" x2="821.778" y2="247.4"/>
		<rect x="23.945" y="246.9" style="fill:#808080;" width="797.833" height="1"/>
	</g>
	<g>
		<line style="fill:#808080;" x1="28.611" y1="241.731" x2="821.778" y2="241.731"/>
		<rect x="28.611" y="241.231" style="fill:#808080;" width="793.167" height="1"/>
	</g>
	<g>
		<line style="fill:#808080;" x1="34.945" y1="236.062" x2="821.778" y2="236.062"/>
		<rect x="34.945" y="235.562" style="fill:#808080;" width="786.833" height="1"/>
	</g>
	<g>
		<line style="fill:#808080;" x1="40.778" y1="230.392" x2="821.778" y2="230.392"/>
		<rect x="40.778" y="229.892" style="fill:#808080;" width="781" height="1"/>
	</g>
	<g>
		<line style="fill:#808080;" x1="46.737" y1="224.723" x2="821.778" y2="224.723"/>
		<rect x="46.737" y="224.223" style="fill:#808080;" width="775.041" height="1"/>
	</g>
	<g>
		<line style="fill:#808080;" x1="52.611" y1="219.054" x2="821.778" y2="219.054"/>
		<rect x="52.611" y="218.554" style="fill:#808080;" width="769.167" height="1"/>
	</g>
	<g>
		<line style="fill:#808080;" x1="57.945" y1="213.384" x2="821.778" y2="213.384"/>
		<rect x="57.945" y="212.884" style="fill:#808080;" width="763.833" height="1"/>
	</g>
	<g>
		<line style="fill:#808080;" x1="63.778" y1="207.715" x2="821.778" y2="207.715"/>
		<rect x="63.778" y="207.215" style="fill:#808080;" width="758" height="1"/>
	</g>
	<g>
		<line style="fill:#808080;" x1="70.103" y1="202.046" x2="820.632" y2="202.046"/>
		<rect x="70.103" y="201.546" style="fill:#808080;" width="750.529" height="1"/>
	</g>
	<g>
		<line style="fill:#808080;" x1="75.278" y1="196.376" x2="821.778" y2="196.376"/>
		<rect x="75.278" y="195.876" style="fill:#808080;" width="746.5" height="1"/>
	</g>
	<g>
		<line style="fill:#808080;" x1="81.278" y1="190.708" x2="820.632" y2="190.708"/>
		<rect x="81.278" y="190.208" style="fill:#808080;" width="739.354" height="1"/>
	</g>
	<g>
		<line style="fill:#808080;" x1="87.278" y1="185.038" x2="820.632" y2="185.038"/>
		<rect x="87.278" y="184.538" style="fill:#808080;" width="733.354" height="1"/>
	</g>
</g>
<g id="wrapper">
	<g>
		
			<image style="overflow:visible;" width="825" height="255" xlink:href="C0BB39F2.png"  transform="matrix(1 0 0 1 8.4448 169.1401)">
		</image>
		<g>
			<path style="fill:#5396C8;" d="M749.833,414.893H18.257V250.552l73.799-72.038h731.576v164.341L749.833,414.893z M21.257,411.893
				h727.354l72.021-70.302V181.514H93.278l-72.021,70.301V411.893z"/>
		</g>
	</g>
</g>
</svg>
