<?xml version="1.0" encoding="utf-8"?>
<!-- Generator: Adobe Illustrator 19.1.0, SVG Export Plug-In . SVG Version: 6.00 Build 0)  -->
<svg version="1.1" id="レイヤー_1" xmlns="http://www.w3.org/2000/svg" xmlns:xlink="http://www.w3.org/1999/xlink" x="0px"
	 y="0px" viewBox="-263 65 72 72" style="enable-background:new -263 65 72 72;" xml:space="preserve">
<style type="text/css">
	.st0{fill:#39B29B;}
	.st1{fill:#FFFFFF;}
</style>
<g>
	<circle class="st0" cx="-227" cy="101" r="36"/>
</g>
<g>
	<path class="st1" d="M-239.6,88.3c-0.7-1.5-1.3-2.5-2.6-4.4l6.3-1.3c1.3,2,2.1,3.3,3.2,5.7h2.9c-0.6-1.8-1.2-3-2.2-5l6.5-1.2
		c1.3,2.6,1.8,3.8,2.5,6.1h2.5c1.1-1.9,2.1-4,2.6-5.9l6.5,1.4c-0.6,1.3-1.5,2.9-2.4,4.5h0.9c2.6,0,3.9,0,5.3-0.2
		c-0.1,1-0.2,1.9-0.2,3.6v4.7c0,1.4,0.1,2.4,0.2,3.5h-6.5v-6h-25.5v6h-6.5c0.2-1,0.2-1.9,0.2-3.5v-4.7c0-1.6,0-2.5-0.2-3.6
		c1.5,0.1,2.6,0.2,5.3,0.2H-239.6z M-223,117.2c0,4.1-1.5,5.1-8.1,5.1c-0.7,0-1.9,0-3.9-0.1c-0.4-2.4-0.9-3.8-1.9-6.3
		c2.3,0.2,4,0.3,5.2,0.3c1.7,0,2-0.1,2-0.9v-4.1h-10.4c-2.4,0-4.4,0.1-5.9,0.3V105c1.7,0.2,3.7,0.3,5.8,0.3h10.5c0-0.8,0-1.5-0.1-2
		h2.4c1.1-0.6,1.8-1.2,2.9-2.2h-8.8c-2.1,0-3.2,0-4.5,0.2v-5.8c1.4,0.1,2.5,0.2,4.6,0.2h12.8c1.7,0,2.6,0,3.4-0.2l3.1,3.5
		c-0.5,0.4-0.6,0.6-1.3,1.2c-1.6,1.5-3.5,3.2-6,5.1h7.9c2.3,0,4.7-0.1,6-0.3v6.5c-1.4-0.2-3.6-0.3-6.1-0.3h-9.5V117.2z"/>
</g>
</svg>
