<?xml version="1.0" encoding="utf-8"?>
<!-- Generator: Adobe Illustrator 15.1.0, SVG Export Plug-In . SVG Version: 6.00 Build 0)  -->
<!DOCTYPE svg PUBLIC "-//W3C//DTD SVG 1.1//EN" "http://www.w3.org/Graphics/SVG/1.1/DTD/svg11.dtd">
<svg version="1.1" id="レイヤー_1" xmlns="http://www.w3.org/2000/svg" xmlns:xlink="http://www.w3.org/1999/xlink" x="0px"
	 y="0px" width="518.349px" height="161.979px" viewBox="171.402 209.44 518.349 161.979"
	 enable-background="new 171.402 209.44 518.349 161.979" xml:space="preserve">
<path fill="#B7CD2B" d="M345.765,243.74c0,0,29.54,77.281,55.16,91.419c25.901,14.42,65.799,48.721,123.2,3.641l-55.02-86.52
	C469.105,252.28,422.345,190.12,345.765,243.74z"/>
<path fill="#7F318D" d="M341.845,250.04c0,0-30.1,39.2-25.62,71.959h65.8L341.845,250.04z"/>
<path fill="#004E2A" d="M180.985,324.24c0,0,17.92-103.6,89.46-106.12c54.88-1.82,68.32,30.52,68.32,30.52s-29.26,34.16-30.52,75.6
	H180.985z"/>
<path fill="#2C2817" d="M689.746,291.76c-0.141-0.28-0.281-0.56-0.42-0.84c-0.141-0.28-0.42-0.42-0.701-0.56
	c-0.279-0.14-0.561-0.28-0.84-0.28s-0.699,0-0.98,0.14c-0.279,0.14-0.559,0.28-0.84,0.42c-0.279,0.14-0.42,0.42-0.559,0.7
	c-0.141,0.28-2.102,3.92-2.24,4.2l-1.541,2.38c-0.699,1.259-1.68,2.521-2.52,3.781s-1.82,2.799-2.939,4.479
	c-1.121,1.682-2.381,3.361-3.641,5.041s-2.66,3.5-4.199,5.18c-1.541,1.68-3.08,3.359-4.621,4.9c-1.539,1.539-2.939,3.08-4.199,4.34
	s-2.52,2.52-3.641,3.5c-1.119,0.98-2.1,1.82-2.801,2.381l0,0l0,0l0,0l0,0c-0.559,0.559-1.119,1.119-1.959,1.68
	c-0.84,0.559-1.68,1.26-2.66,1.959c-0.98,0.701-2.1,1.4-3.221,2.1c-1.119,0.701-2.238,1.541-3.359,2.24l-0.42,0.281l-0.42,0.279
	c-1.26,0.84-2.381,1.541-3.641,2.24s-2.379,1.539-3.5,2.1c-1.119,0.701-2.24,1.26-3.08,1.82c-0.979,0.561-1.818,0.98-2.52,1.4
	c-0.699,0.42-1.4,0.699-2.24,0.98c-0.699,0.279-1.4,0.699-2.24,0.979c-0.699,0.281-1.539,0.561-2.24,0.84
	c-0.699,0.281-1.539,0.561-2.238,0.84c-0.701,0.281-1.541,0.561-2.24,0.842c-0.701,0.279-1.541,0.42-2.24,0.699
	c-0.701,0.279-1.541,0.42-2.24,0.699c-0.699,0.141-1.541,0.42-2.24,0.561s-1.539,0.42-2.24,0.561c-0.84,0.139-1.539,0.279-2.24,0.42
	c-0.84,0.139-1.539,0.279-2.379,0.42c-0.701,0.141-1.541,0.279-2.381,0.279c-0.84,0.141-1.539,0.141-2.379,0.281
	c-0.842,0-1.541,0.139-2.381,0.139s-1.539,0.141-2.381,0.141c-0.84,0-1.539,0-2.379,0s-1.541,0-2.381,0s-1.539,0-2.379-0.141
	c-0.84,0-1.541-0.139-2.381-0.139c-0.84-0.141-1.539-0.141-2.379-0.281c-0.84-0.139-1.541-0.139-2.381-0.279
	s-1.539-0.281-2.381-0.42c-0.699-0.141-1.539-0.281-2.238-0.42c-0.842-0.141-1.541-0.281-2.24-0.561
	c-0.701-0.141-1.541-0.42-2.24-0.561c-0.701-0.139-1.541-0.42-2.24-0.699s-1.541-0.42-2.24-0.699
	c-0.699-0.281-1.539-0.561-2.24-0.842c-0.699-0.279-1.539-0.559-2.24-0.84c-0.699-0.279-1.539-0.559-2.24-0.979
	c-0.699-0.281-1.398-0.701-2.24-0.98c-0.699-0.281-1.398-0.701-2.1-0.98c-0.699-0.279-1.4-0.699-2.1-1.119s-1.4-0.701-2.1-1.121
	c-0.701-0.42-1.4-0.84-2.1-1.119c-0.701-0.42-1.4-0.84-1.961-1.26c-0.699-0.42-1.26-0.84-1.959-1.26
	c-0.701-0.422-1.26-0.842-1.961-1.4c-0.699-0.42-1.26-0.98-1.959-1.4c-0.701-0.42-1.26-0.98-1.961-1.4
	c-0.279-0.141-0.42-0.42-0.699-0.561l0.139-0.139l0.561-0.561l0.98-1.26l0.561-0.561c0.559-0.561,1.119-1.26,1.68-1.959
	c0.559-0.701,1.119-1.4,1.82-2.24c0.559-0.701,1.26-1.541,1.818-2.381c0.561-0.84,1.262-1.68,1.82-2.52
	c0.42-0.561,0.701-1.119,1.121-1.68s0.699-1.121,1.119-1.82c0.279-0.561,0.701-1.26,0.98-1.82s0.699-1.26,0.98-1.82l0.42-0.84
	l0.42-0.84l0.42-0.84l0.42-0.84c0.559-0.84,0.98-1.82,1.4-2.66s0.84-1.82,1.26-2.66c0.42-0.98,0.699-1.82,1.119-2.799
	c0.279-0.98,0.701-1.961,0.98-2.941c0.279-0.84,0.42-1.82,0.699-2.799c0.281-0.98,0.42-1.82,0.561-2.941
	c0.141-0.98,0.279-1.96,0.42-3.08c0.141-0.98,0.279-2.1,0.42-3.22c0-0.28,0-0.7-0.141-0.84c-0.139-0.28-0.279-0.56-0.42-0.84
	c-0.139-0.28-0.42-0.42-0.699-0.56c-0.279-0.14-0.561-0.28-0.84-0.28s-0.561,0-0.98,0.14c-0.279,0.14-0.561,0.28-0.84,0.42
	s-0.42,0.42-0.561,0.7c-0.139,0.28-2.1,3.92-2.24,4.2l-1.539,2.38c-0.699,1.261-1.68,2.521-2.52,3.78s-1.82,2.801-2.941,4.48
	c-1.119,1.68-2.379,3.359-3.639,5.039s-2.66,3.5-4.201,5.18c-1.539,1.682-3.08,3.361-4.619,4.9c-1.4,1.541-2.939,3.08-4.199,4.34
	c-0.842,0.84-1.541,1.541-2.24,2.24c-0.561-0.561-0.98-1.119-1.541-1.68s-1.119-1.26-1.68-1.82c-0.561-0.699-1.119-1.26-1.68-1.959
	c-0.561-0.701-1.121-1.262-1.541-1.961c-0.559-0.699-0.979-1.4-1.539-2.1c-0.561-0.701-0.98-1.4-1.541-2.1
	c-0.42-0.701-0.979-1.4-1.398-2.102c-0.42-0.699-0.98-1.398-1.4-2.1c-0.42-0.699-0.84-1.4-1.4-2.24
	c-0.42-0.699-0.84-1.398-1.26-2.238c-0.42-0.701-0.84-1.541-1.26-2.381s-0.84-1.68-1.26-2.381c-0.42-0.84-0.84-1.68-1.262-2.52
	c-0.42-0.84-0.699-1.68-1.119-2.38c0-0.14-0.141-0.28-0.279-0.56c-0.141-0.28-0.281-0.56-0.42-0.98c-0.141-0.28-0.281-0.7-0.42-0.84
	c-0.141-0.28-0.141-0.42-0.141-0.42l-0.699-1.54l-1.262-3.22l-0.699-1.68l0,0c-0.98-2.66-2.381-5.88-3.641-8.82l-0.699-1.68
	c-1.541-3.64-2.939-6.72-4.9-10.22l-0.84-1.4c-1.539-2.94-3.359-6.3-5.32-8.96c-2.1-3.22-4.48-6.3-6.859-9.1
	c-2.381-2.94-4.9-5.74-7.561-8.4s-5.32-5.18-8.119-7.42c-2.801-2.24-5.74-4.48-8.68-6.44c-2.941-1.96-6.16-3.78-9.24-5.46
	c-3.221-1.68-6.721-3.22-10.08-4.48c-3.361-1.26-6.861-2.38-10.361-3.22s-6.999-1.54-10.639-1.96c-3.5-0.42-7.14-0.7-10.78-0.7
	c-3.64,0-7.28,0.28-10.78,0.7s-7.14,1.12-10.64,1.96s-7,1.96-10.36,3.22c-3.36,1.26-6.72,2.8-10.08,4.48
	c-3.22,1.68-6.3,3.5-9.24,5.46c-2.94,1.96-5.88,4.2-8.68,6.44c-1.54,1.4-3.22,2.8-4.76,4.2c-1.54-1.4-3.22-2.8-4.76-4.2
	c-2.8-2.24-5.74-4.48-8.68-6.44c-2.94-1.96-6.02-3.78-9.24-5.46c-3.22-1.68-6.72-3.22-10.08-4.48c-3.36-1.26-6.86-2.38-10.36-3.22
	s-7-1.54-10.64-1.96c-3.5-0.42-7.14-0.7-10.78-0.7c-3.64,0-7.28,0.28-10.78,0.7s-7.14,1.12-10.64,1.96s-7,1.96-10.36,3.22
	c-3.36,1.26-6.72,2.8-10.08,4.48c-3.08,1.68-6.3,3.5-9.24,5.46s-5.88,4.2-8.68,6.44c-2.8,2.38-5.6,4.76-8.12,7.42
	c-2.66,2.66-5.18,5.46-7.56,8.4c-2.38,2.94-4.62,6.02-6.86,9.1c-2.1,3.22-4.2,6.44-6.02,9.8c-1.82,3.36-3.64,6.86-5.18,10.5
	c-1.54,3.64-3.08,7.28-4.34,11.06c-1.4,3.92-2.52,7.84-3.5,11.9c-0.98,4.061-1.82,8.119-2.52,12.18
	c-0.7,4.061-1.12,8.26-1.54,12.461l-0.28,4.619l0,0c-0.14,1.68,0,3.779,0,4.76c0.14,1.4,0.56,5.18,0.7,5.881
	c0.14,0.699,0.7,3.5,0.84,4.059c0.14,0.561,0.56,1.262,0.84,1.4c0.28,0.141,1.12,0.84,1.4,0.98c0.28,0.141,0.7,0.42,0.56,0.279
	c-0.14,0,0.28,0.141,0.42,0.281c0.14,0,0.7,0.42,0.84,0.559c0.14,0.141,0.98,0.561,1.26,0.84c0.28,0.141,1.4,0.701,1.68,0.98
	c0.28,0.141,1.68,0.84,2.1,1.121c0.42,0.279,1.96,0.979,2.24,1.26c0.42,0.279,1.68,0.84,1.96,1.119c0.28,0.141,1.26,0.701,1.4,0.84
	c0.14,0.141,0.84,0.561,0.98,0.701c0.14,0.139,0.56,0.559,0.56,0.699c0.14,0.141,0.42,0.701,0.42,0.84c0,0.281,0.28,0.98,0.28,1.26
	c0,0.281,0.14,1.26,0.14,1.541c0,0.279,0,0.98,0,1.119c0,0.141,0,0.561-0.14,0.701c0,0.139-0.14,0.559-0.14,0.559
	c0,0.141-0.14,0.42-0.28,0.42c0,0.141-0.28,0.281-0.28,0.42c-0.14,0-0.28,0.281-0.42,0.281c-0.14,0-0.42,0.139-0.56,0.139
	c-0.14,0-0.42,0.141-0.56,0.141c-0.14,0-0.56,0-0.56,0c-0.14,0-0.42,0-0.56-0.141c-0.14,0-0.42-0.139-0.42-0.139
	s-0.28-0.141-0.42-0.281c0,0-0.14-0.279-0.28-0.42c0-0.139-0.14-0.42-0.14-0.559c0-0.141-0.14-0.561-0.14-0.701
	c0-0.139,0-0.699,0-0.98c0-0.139,0-0.559,0-0.979v-3.641c0-0.279-0.7-0.699-1.54-0.699h-9.1c-0.84,0-1.54,0.139-1.54,0.279v1.961
	c0,0.139,0,1.398,0,1.818s0.14,1.682,0.14,1.961s0.28,1.4,0.28,1.68c0.14,0.279,0.42,1.26,0.42,1.4c0.14,0.279,0.56,0.98,0.7,1.26
	s0.7,0.98,0.98,1.119c0.14,0.141,0.98,0.84,1.26,0.98c0.28,0.141,1.26,0.701,1.54,0.84c0.28,0.141,1.54,0.701,1.82,0.701
	c0.42,0.139,1.68,0.42,2.1,0.559c0.42,0.141,1.82,0.281,2.24,0.42c0.42,0,1.96,0.141,2.52,0.141c0.42,0,1.96,0,2.38,0
	s1.82-0.141,2.24-0.141c0.42,0,1.68-0.279,2.1-0.42c0.42-0.139,1.54-0.42,1.96-0.559c0.28-0.141,1.4-0.561,1.68-0.701
	c0.28-0.139,1.26-0.699,1.4-0.84c0.28-0.141,0.98-0.699,1.12-0.84s0.7-0.84,0.84-0.98c0.14-0.139,0.56-0.84,0.56-1.119
	c0.14-0.279,0.42-1.121,0.42-1.4s0.28-1.26,0.28-1.68c0-0.279,0.14-1.541,0.14-1.961s0-2.1,0-2.52c0-0.561-0.28-2.1-0.28-2.52
	c-0.14-0.42-0.42-1.68-0.56-2.1c-0.14-0.281-0.7-1.4-0.84-1.68c-0.14-0.281-0.98-1.121-1.26-1.4c-0.28-0.281-1.54-1.26-2.1-1.541
	c-0.42-0.279-2.24-1.4-2.94-1.68c-0.56-0.279-2.94-1.539-3.64-1.959c-0.7-0.42-2.1-0.98-2.38-1.121
	c-0.28-0.141-0.98-0.561-1.12-0.699c-0.14-0.141-0.7-0.561-0.84-0.561c-0.14-0.141-0.56-0.42-0.56-0.561
	c-0.14-0.139-0.28-0.42-0.28-0.559c0-0.141-0.28-0.561-0.28-0.701c0-0.139-0.14-0.699-0.14-0.84s0-0.699,0-0.84s0-0.699,0-0.84
	s0-0.561,0.14-0.699c0-0.141,0.14-0.561,0.14-0.561c0-0.141,0.14-0.42,0.28-0.42c0-0.141,0.28-0.281,0.28-0.42
	c0,0,0.28-0.281,0.42-0.281c0.14,0,0.42-0.139,0.42-0.139c0.14,0,0.42-0.141,0.56-0.141c0.14,0,0.42,0,0.56,0
	c0.14,0,0.42,0.141,0.42,0.141c0.14,0,0.28,0.139,0.42,0.139c0,0,0.28,0.141,0.28,0.281c0,0,0.14,0.279,0.28,0.279
	c0,0.141,0.14,0.42,0.14,0.561c0,0.139,0.14,0.561,0.14,0.699c0,0.141,0,0.701,0,0.84c0,0.141,0,0.561,0,0.701v2.24
	c0,0.139,0.7,0.42,1.54,0.42h9.1c0.84,0,1.54-0.141,1.54-0.141v-1.26c0-0.141,0-1.26,0-1.68s-0.14-1.68-0.14-1.961
	c0-0.279-0.28-1.4-0.28-1.68c-0.14-0.279-0.42-1.119-0.42-1.26c-0.14-0.279-0.56-0.84-0.7-0.98s-0.7-0.699-0.98-0.84
	c-0.14-0.141-0.98-0.699-1.26-0.84h-0.14h42c-0.42,0.561-0.7,1.26-0.7,2.1v33.32c0,1.961,1.54,3.5,3.5,3.5h5.6
	c1.96,0,3.5-1.539,3.5-3.5v-20.02c0-1.68,0.14-2.801,0.42-3.361c0.28-0.559,0.84-0.84,1.54-0.84c0.84,0,1.4,0.281,1.54,0.84
	c0.28,0.561,0.28,0.561,0.28,0.561c0,1.68,0.14,4.76,0.14,6.58v16.24c0,1.961,1.54,3.5,3.5,3.5h5.6c1.96,0,3.5-1.539,3.5-3.5v-19.32
	c0-3.08-0.14-5.18-0.56-6.439c-0.28-1.121-1.26-2.24-2.8-3.08c-1.54-0.84-3.36-1.4-5.6-1.4c-1.4,0-2.8,0.141-4.06,0.561
	c-1.26,0.42-1.26,0.42-1.26,0.42c-1.26,0.699-2.24-0.141-2.24-2.1v-2.102c0-0.84-0.28-1.539-0.7-2.1h116.62
	c-0.28,0.42-0.42,0.84-0.42,1.26c0,1.4,1.54,2.66,3.5,2.66h6.02c1.96,0,3.5-1.119,3.5-2.66c0-0.279-0.14-0.559-0.28-0.84
	c0.56,0.701,0.98,1.26,1.54,1.961c0.56,0.699,1.26,1.539,1.82,2.24c0.7,0.699,1.26,1.398,1.96,2.24c0.7,0.699,1.26,1.398,1.96,2.1
	c0.7,0.699,1.4,1.4,1.96,2.1c0.7,0.699,1.4,1.4,1.96,1.959c0.7,0.701,1.4,1.262,2.1,1.961c0.7,0.699,1.4,1.26,2.1,1.82
	c0.7,0.561,1.4,1.26,2.1,1.82c0.7,0.559,1.4,1.26,2.24,1.82c0.7,0.559,1.4,1.119,2.24,1.68c0.7,0.559,1.54,1.119,2.24,1.68
	s1.54,1.119,2.24,1.539c0.7,0.561,1.54,0.98,2.38,1.541c0.7,0.561,1.54,0.98,2.38,1.4s1.54,0.979,2.38,1.398
	c0.84,0.42,1.54,0.842,2.38,1.262c0.84,0.42,1.68,0.84,2.38,1.26c0.84,0.42,1.68,0.84,2.52,1.26c0.841,0.42,1.681,0.84,2.659,1.119
	c0.84,0.42,1.82,0.701,2.66,1.121s1.82,0.699,2.66,0.979c0.84,0.281,1.82,0.701,2.66,0.98c0.84,0.281,1.82,0.561,2.66,0.84
	c0.84,0.281,1.82,0.561,2.66,0.701c0.98,0.279,1.82,0.42,2.66,0.699s1.82,0.42,2.66,0.561c0.98,0.139,1.82,0.42,2.799,0.559
	c0.98,0.141,1.82,0.281,2.801,0.422c0.98,0.139,1.82,0.279,2.801,0.42c0.979,0.139,1.818,0.139,2.799,0.279s1.82,0.141,2.801,0.141
	s1.82,0.139,2.799,0.139c0.98,0,1.82,0,2.801,0s1.82,0,2.801,0c0.979,0,1.818,0,2.799-0.139c0.98,0,1.82-0.141,2.801-0.141
	c0.98-0.141,1.82-0.141,2.799-0.279c0.98-0.141,1.82-0.281,2.801-0.42c0.84-0.141,1.82-0.281,2.801-0.422
	c0.979-0.139,1.818-0.279,2.799-0.559c0.84-0.141,1.82-0.42,2.66-0.561s1.82-0.42,2.66-0.699c0.84-0.281,1.82-0.561,2.66-0.701
	c0.84-0.279,1.82-0.559,2.66-0.84c0.84-0.279,1.82-0.561,2.66-0.98c0.84-0.279,1.82-0.699,2.66-0.979
	c0.84-0.281,1.818-0.701,2.66-1.121c0.84-0.42,1.68-0.699,2.658-1.119c0.842-0.42,1.682-0.84,2.521-1.26s1.68-0.84,2.379-1.26
	c0.84-0.42,1.68-0.842,2.381-1.262c0.84-0.42,1.539-0.979,2.379-1.398c0.842-0.42,1.541-0.98,2.381-1.4
	c0.84-0.561,1.539-0.98,2.381-1.541c0.699-0.559,1.539-0.979,2.238-1.539c0.701-0.561,1.541-1.121,2.24-1.68
	c0.701-0.561,1.541-1.121,2.24-1.68c0.701-0.561,1.4-1.121,2.1-1.82c0.141-0.141,0.141-0.141,0.281-0.281
	c0.139,0.141,0.139,0.141,0.279,0.281c0.701,0.559,1.4,1.26,2.24,1.82c0.699,0.559,1.4,1.119,2.24,1.68
	c0.699,0.559,1.539,1.119,2.24,1.68c0.699,0.561,1.539,1.119,2.24,1.539c0.84,0.561,1.539,0.98,2.379,1.541s1.541,0.98,2.381,1.4
	s1.539,0.979,2.379,1.398s1.541,0.842,2.381,1.262s1.68,0.84,2.381,1.26c0.84,0.42,1.68,0.84,2.52,1.26s1.68,0.84,2.66,1.119
	c0.84,0.42,1.68,0.701,2.66,1.121c0.84,0.42,1.818,0.699,2.66,0.979c0.84,0.281,1.818,0.701,2.658,0.98
	c0.842,0.281,1.82,0.561,2.66,0.84c0.84,0.281,1.82,0.561,2.66,0.701c0.84,0.279,1.82,0.42,2.66,0.699s1.82,0.42,2.66,0.561
	c0.84,0.139,1.82,0.42,2.66,0.559c0.98,0.141,1.82,0.281,2.801,0.422c0.979,0.139,1.818,0.279,2.799,0.42
	c0.98,0.139,1.82,0.139,2.801,0.279s1.82,0.141,2.799,0.141c0.98,0,1.82,0.139,2.801,0.139s1.82,0,2.801,0c0.979,0,1.818,0,2.799,0
	s1.82,0,2.801-0.139c0.98,0,1.82-0.141,2.799-0.141c0.98-0.141,1.82-0.141,2.801-0.279c0.98-0.141,1.82-0.281,2.801-0.42
	c0.979-0.141,1.818-0.281,2.799-0.422c0.98-0.139,1.82-0.279,2.801-0.559c0.98-0.141,1.82-0.42,2.66-0.561s1.82-0.42,2.66-0.699
	c0.84-0.281,1.818-0.561,2.66-0.701c0.84-0.279,1.818-0.559,2.658-0.84c0.842-0.279,1.82-0.561,2.66-0.98
	c0.84-0.279,1.82-0.699,2.66-0.979c0.84-0.281,1.82-0.701,2.66-1.121s1.68-0.699,2.66-1.119c0.84-0.42,1.68-0.84,2.52-1.26
	s1.682-0.84,2.521-1.26s1.68-0.842,2.379-1.262c0.84-0.42,1.541-0.979,2.381-1.398s1.539-0.98,2.379-1.4
	c0.701-0.561,1.541-0.98,2.381-1.541c0.699-0.559,1.539-0.979,2.24-1.539c0.699-0.561,1.539-1.121,2.24-1.68
	c0.699-0.561,1.539-1.121,2.24-1.68c0.699-0.561,1.398-1.121,2.238-1.82c0.701-0.561,1.4-1.26,2.102-1.82
	c0.699-0.561,1.398-1.26,2.1-1.82c0.699-0.699,1.4-1.26,2.1-1.961c0.561-0.42,0.98-0.979,1.541-1.539
	c0.42-0.561,0.979-0.98,1.398-1.539c0.42-0.561,0.84-1.121,1.4-1.541c0.42-0.561,0.84-1.119,1.26-1.539l0.561-0.561l0.98-1.26
	l0.559-0.561c0.561-0.561,1.121-1.26,1.682-1.961c0.559-0.699,1.119-1.398,1.818-2.238c0.561-0.701,1.262-1.541,1.82-2.381
	c0.561-0.84,1.26-1.68,1.82-2.52c0.42-0.561,0.701-1.121,1.121-1.68c0.42-0.561,0.699-1.121,1.119-1.82
	c0.279-0.561,0.699-1.26,0.98-1.82c0.279-0.561,0.699-1.26,0.98-1.82l0.42-0.84l0.42-0.84l0.42-0.84l0.42-0.84
	c0.559-0.84,0.979-1.82,1.398-2.66s0.842-1.82,1.262-2.66c0.42-0.98,0.699-1.82,1.119-2.801c0.279-0.979,0.699-1.959,0.98-2.939
	c0.279-0.84,0.42-1.82,0.699-2.801c0.141-0.979,0.42-1.818,0.561-2.939c0.141-0.98,0.279-1.96,0.42-3.08
	c0.141-0.98,0.279-2.1,0.42-3.22C689.884,292.32,689.746,292.04,689.746,291.76z M309.785,289.24c-1.4,3.92-2.52,7.84-3.5,11.9
	c-0.98,4.061-1.82,8.119-2.52,12.18c-0.28,1.82-0.56,3.781-0.84,5.6h-112.7c0.14-0.979,0.28-1.959,0.42-2.939
	c0.56-3.641,1.4-7.279,2.24-10.92s1.96-7.14,3.08-10.64c1.12-3.36,2.38-6.58,3.78-9.8s2.94-6.3,4.48-9.24
	c1.68-2.94,3.36-5.88,5.32-8.68c1.82-2.8,3.92-5.46,5.88-7.98c2.1-2.52,4.2-4.9,6.44-7.14c2.24-2.24,4.48-4.34,6.86-6.3
	s4.9-3.78,7.42-5.46c2.52-1.68,5.18-3.22,7.84-4.62c2.66-1.4,5.46-2.66,8.26-3.78c2.8-1.12,5.6-1.96,8.54-2.66
	c2.8-0.7,5.74-1.26,8.68-1.54c2.94-0.42,5.88-0.56,8.82-0.56s5.88,0.14,8.82,0.56c2.94,0.28,5.88,0.84,8.68,1.54
	c2.8,0.7,5.74,1.54,8.54,2.66c2.8,1.12,5.6,2.24,8.26,3.78c2.66,1.4,5.32,2.94,7.84,4.62c2.52,1.68,5.04,3.5,7.42,5.46
	c1.4,1.12,2.66,2.24,3.92,3.5c-2.38,2.8-4.62,5.88-6.72,8.96c-2.1,3.22-4.2,6.44-6.02,9.8c-1.82,3.36-3.64,6.86-5.18,10.5
	C312.445,281.82,311.045,285.46,309.785,289.24z M319.305,319.06c0.14-0.98,0.28-1.959,0.42-2.939c0.56-3.641,1.4-7.281,2.24-10.92
	c0.84-3.641,1.96-7.141,3.22-10.641c1.12-3.36,2.38-6.58,3.78-9.8c1.4-3.22,2.94-6.3,4.48-9.24c1.68-2.94,3.36-5.88,5.32-8.68
	c1.4-1.96,2.8-3.92,4.34-5.88c1.54,1.96,2.94,3.92,4.34,5.88c1.82,2.8,3.64,5.6,5.32,8.68c1.68,2.94,3.22,6.02,4.48,9.24
	c2.24,5.04,3.36,8.26,3.92,9.66l0,0l0,0c0.28,0.98,0.7,1.82,1.12,2.8c0.42,0.98,0.7,1.82,1.12,2.801
	c0.42,0.979,0.7,1.818,1.12,2.799s0.84,1.82,1.26,2.66c0.42,0.84,0.84,1.82,1.26,2.66s0.84,1.82,1.4,2.66
	c0.42,0.84,0.98,1.68,1.4,2.66c0.42,0.84,0.98,1.68,1.4,2.52c0.42,0.84,0.98,1.68,1.54,2.52c0.14,0.141,0.14,0.281,0.28,0.42h-53.76
	V319.06z M512.925,339.919l-0.42,0.281l-0.42,0.279c-1.26,0.84-2.381,1.541-3.641,2.24s-2.381,1.539-3.5,2.1
	c-1.119,0.701-2.24,1.26-3.08,1.82c-0.98,0.561-1.82,0.98-2.52,1.4c-0.701,0.42-1.4,0.699-2.24,0.98
	c-0.699,0.279-1.4,0.699-2.24,0.979c-0.699,0.281-1.539,0.561-2.24,0.84c-0.699,0.281-1.539,0.561-2.24,0.84
	c-0.699,0.281-1.539,0.561-2.24,0.842c-0.699,0.279-1.539,0.42-2.24,0.699c-0.699,0.279-1.539,0.42-2.238,0.699
	c-0.701,0.141-1.541,0.42-2.24,0.561c-0.701,0.141-1.541,0.42-2.24,0.561c-0.84,0.139-1.541,0.279-2.24,0.42
	c-0.84,0.141-1.541,0.279-2.381,0.42c-0.699,0.141-1.539,0.279-2.379,0.279c-0.84,0.141-1.541,0.141-2.381,0.281
	c-0.84,0-1.539,0.139-2.379,0.139s-1.541,0.141-2.381,0.141s-1.539,0-2.379,0s-1.541,0-2.381,0s-1.539,0-2.381-0.141
	c-0.84,0-1.539-0.139-2.379-0.139c-0.84-0.141-1.541-0.141-2.381-0.281c-0.699-0.139-1.539-0.139-2.379-0.279
	s-1.541-0.279-2.381-0.42s-1.539-0.281-2.379-0.42c-0.701-0.141-1.541-0.281-2.24-0.561c-0.701-0.141-1.541-0.42-2.24-0.561
	c-0.699-0.139-1.541-0.42-2.24-0.699s-1.539-0.42-2.24-0.699c-0.699-0.281-1.539-0.561-2.24-0.842
	c-0.699-0.279-1.539-0.559-2.24-0.84c-0.699-0.279-1.539-0.559-2.238-0.979c-0.701-0.281-1.4-0.701-2.24-0.98
	c-0.701-0.279-1.4-0.701-2.102-0.98c-0.699-0.279-1.398-0.699-2.1-1.119c-0.699-0.42-1.4-0.701-2.1-1.121
	c-0.7-0.42-1.4-0.84-2.1-1.119c-0.7-0.42-1.4-0.84-1.96-1.26c-0.7-0.42-1.26-0.84-1.96-1.26c-0.7-0.42-1.26-0.842-1.96-1.4
	c-0.7-0.42-1.26-0.98-1.96-1.4s-1.26-0.98-1.96-1.4c-0.7-0.561-1.26-0.98-1.82-1.539c-0.56-0.561-1.26-0.98-1.82-1.541
	s-1.26-1.119-1.82-1.68s-1.26-1.119-1.82-1.68c-0.56-0.561-1.12-1.121-1.68-1.68c-0.56-0.561-1.12-1.121-1.68-1.82
	c-0.56-0.561-1.12-1.26-1.68-1.82c-0.56-0.561-1.12-1.26-1.68-1.82c-0.56-0.699-1.12-1.26-1.68-1.959
	c-0.56-0.701-1.12-1.26-1.54-1.961c-0.56-0.699-0.98-1.4-1.54-2.1c-0.56-0.699-0.98-1.4-1.54-2.1c-0.42-0.701-0.98-1.4-1.4-2.1
	c-0.42-0.701-0.98-1.4-1.4-2.102c-0.42-0.699-0.84-1.398-1.4-2.24c-0.42-0.699-0.84-1.398-1.26-2.238
	c-0.42-0.701-0.84-1.541-1.26-2.381s-0.84-1.68-1.26-2.381c-0.42-0.84-0.84-1.68-1.26-2.52s-0.7-1.68-1.12-2.379
	c0-0.14-0.14-0.28-0.28-0.56c-0.14-0.28-0.28-0.56-0.42-0.98c-0.14-0.28-0.28-0.7-0.42-0.84c-0.14-0.28-0.14-0.42-0.14-0.42
	l-0.7-1.54l-1.96-4.76l0,0c-0.98-2.66-2.38-5.88-3.64-8.82l-0.7-1.68c-1.54-3.64-2.94-6.72-4.9-10.22l-0.84-1.4
	c-1.54-2.94-3.36-6.3-5.32-8.96c-2.1-3.08-4.34-6.16-6.72-8.96c1.26-1.26,2.66-2.38,3.92-3.5c2.38-1.96,4.9-3.78,7.42-5.46
	s5.18-3.22,7.84-4.62s5.46-2.66,8.26-3.78c2.8-1.12,5.6-1.96,8.54-2.66c2.8-0.7,5.74-1.26,8.68-1.54c2.94-0.42,5.88-0.56,8.82-0.56
	c2.94,0,5.88,0.14,8.82,0.56c2.94,0.28,5.88,0.84,8.681,1.54c2.799,0.7,5.738,1.54,8.539,2.66s5.6,2.24,8.26,3.78
	c2.66,1.4,5.32,2.94,7.84,4.62c2.521,1.68,5.041,3.5,7.42,5.46c2.381,1.96,4.76,4.06,6.861,6.3c2.24,2.24,4.479,4.62,6.439,7.14
	c2.1,2.52,4.061,5.18,5.879,7.98c1.82,2.8,3.641,5.6,5.32,8.68c1.68,2.94,3.221,6.02,4.621,9.24c2.24,5.04,3.359,8.26,3.92,9.66l0,0
	l0,0c0.279,0.98,0.699,1.82,1.119,2.8s0.701,1.819,1.121,2.8s0.699,1.82,1.119,2.801s0.84,1.82,1.26,2.66s0.84,1.82,1.26,2.66
	s0.84,1.818,1.4,2.66c0.42,0.84,0.98,1.68,1.4,2.658c0.42,0.842,0.98,1.682,1.4,2.521s0.98,1.68,1.539,2.52
	c0.561,0.84,0.98,1.68,1.541,2.52c0.559,0.84,1.119,1.68,1.539,2.381c0.561,0.84,1.121,1.68,1.68,2.379
	c0.561,0.84,1.121,1.541,1.682,2.381c0.559,0.84,1.119,1.539,1.818,2.379c0.561,0.701,1.26,1.541,1.82,2.24
	c0.561,0.701,1.26,1.541,1.82,2.24c0.561,0.701,1.26,1.4,1.961,2.24c0.139,0.279,0.42,0.42,0.559,0.699
	C515.025,338.66,513.906,339.361,512.925,339.919z M233.345,339.5c-1.12-1.119-2.66-1.959-4.62-2.66
	c-1.96-0.699-4.48-0.979-7.28-0.979c-3.36,0-6.16,0.559-8.26,1.539c-2.1,0.98-3.64,2.381-4.48,4.201
	c-0.84,1.68-0.98,3.779-0.98,3.779c-0.14,1.959-0.28,5.039-0.28,7v5.039c0,2.801,0.28,4.9,0.7,6.301c0.42,1.4,1.26,2.52,2.24,3.641
	c1.12,0.979,2.52,1.68,4.48,2.24c1.96,0.559,4.34,0.699,7,0.699c2.52,0,4.76-0.279,6.58-0.84c1.96-0.561,3.5-1.541,4.76-2.66
	c1.26-1.26,2.1-2.52,2.38-3.92c0.42-1.4,0.42-3.08,0.42-3.08c0-1.961,0.14-5.041,0.14-7v-4.621c0-2.379-0.14-4.059-0.56-5.18
	C235.165,341.74,234.465,340.621,233.345,339.5z M223.685,360.781c0,1.398-0.14,2.379-0.42,2.799c-0.28,0.42-0.7,0.701-1.54,0.701
	c-0.7,0-1.26-0.281-1.4-0.701c-0.28-0.42-0.28-0.42-0.28-0.42c0-1.4-0.14-4.059-0.14-6.02V345.8c0-1.68,0.14-2.801,0.42-3.221
	s0.7-0.699,1.54-0.699c0.7,0,1.26,0.279,1.4,0.699c0.28,0.42,0.28,0.42,0.28,0.42c0,1.541,0.14,4.34,0.14,6.301V360.781z
	 M324.065,350.281c-2.8-1.121-4.62-1.961-5.46-2.521c-0.84-0.559-1.4-1.119-1.54-1.539c-0.14-0.42-0.28-1.26-0.28-2.24
	c0-0.699,0.14-1.26,0.56-1.68c0.28-0.42,0.84-0.561,1.54-0.561c0.84,0,1.4,0.141,1.68,0.561c0.28,0.42,0.28,0.42,0.28,0.42
	c0,1.4,0.14,2.939,0.14,3.359c0,0.561,1.54,0.84,3.5,0.84h4.2c1.96,0,3.5-0.84,3.5-1.959c0-1.68-0.14-2.801-0.28-3.641
	c-0.28-0.84-0.84-1.68-1.82-2.52s-2.52-1.68-4.48-2.24c-1.96-0.561-4.2-0.84-7-0.84c-2.8,0-5.18,0.279-7.28,0.98
	c-2.1,0.699-3.64,1.68-4.48,2.939s-1.26,3.221-1.26,5.881c0,1.818,0.42,3.5,1.26,4.76c0.84,1.398,3.08,2.799,6.72,4.479
	c4.34,1.961,6.86,3.08,7.28,3.5s0.7,1.4,0.7,2.941c0,1.119-0.14,1.959-0.56,2.24c-0.42,0.42-0.98,0.559-1.82,0.559
	c-0.84,0-1.4-0.279-1.68-0.84c-0.28-0.559-0.28-0.559-0.28-0.559c-0.14-1.541-0.14-3.361-0.14-3.922c0-0.559-1.54-0.979-3.5-0.979
	h-4.2c-1.96,0-3.5,0.699-3.5,1.539c0,2.801,0.42,4.76,1.26,6.16c0.84,1.4,2.38,2.381,4.62,3.221c2.24,0.84,5.04,1.26,8.26,1.26
	c2.94,0,5.32-0.42,7.42-1.121c2.1-0.699,3.5-1.818,4.34-3.219c0.84-1.4,1.26-3.361,1.26-6.02c0-2.381-0.56-4.201-1.68-5.461
	C330.085,353.08,327.705,351.679,324.065,350.281z M359.485,337.679c-2.1-1.26-5.32-1.818-9.66-1.818c-3.5,0-6.44,0.559-8.68,1.539
	c-2.24,1.121-3.64,2.24-4.479,3.641c-0.7,1.4-0.84,2.379-0.84,2.379c-0.14,1.961-0.28,3.92-0.28,4.621c0,0.561,1.54,1.119,3.5,1.119
	h4.76c1.96,0,3.5-1.539,3.5-3.5c0-1.82,0.14-2.939,0.28-3.359c0.14-0.42,0.7-0.699,1.54-0.699c0.7,0,1.26,0.279,1.54,0.84
	c0.28,0.559,0.42,1.68,0.42,3.359c0,1.4-0.14,2.24-0.42,2.66c-0.28,0.42-2.521,1.26-6.58,2.66c-3.92,1.26-6.3,2.24-7.28,3.08
	s-1.12,1.539-1.12,1.539c-0.28,1.961-0.42,4.621-0.42,6.16c0,3.359,0.98,5.461,2.8,6.439c1.82,0.98,3.92,1.541,6.02,1.541
	c1.68,0,3.08-0.279,4.34-0.84s1.26-0.561,1.26-0.561c0.98-1.119,1.68-1.4,1.68-0.561s1.54,1.541,3.5,1.541h5.32
	c1.96,0,3.5-1.541,3.5-3.5v-13.02c0-5.461-0.28-9.102-0.7-10.781C362.985,340.339,361.585,338.941,359.485,337.679z M351.365,360.64
	c0,1.68-0.14,2.66-0.42,3.08c-0.28,0.42-0.7,0.561-1.54,0.561s-1.4-0.281-1.68-0.701c-0.28-0.559-0.42-1.539-0.42-3.359
	c0-1.541,0.14-2.66,0.42-3.5c0.28-0.84,0.56-0.98,0.56-0.98c1.54-1.119,2.94-0.42,2.94,1.541v3.359H351.365z M377.825,336.56h-6.02
	c-1.96,0-3.5,1.541-3.5,3.5v26.041c0,1.959,1.54,3.5,3.5,3.5h6.02c1.96,0,3.5-1.541,3.5-3.5V340.06
	C381.325,338.101,379.645,336.56,377.825,336.56z M299.285,339.5c-1.12-1.119-2.66-1.959-4.62-2.66
	c-1.96-0.699-4.48-0.979-7.28-0.979c-3.36,0-6.16,0.559-8.26,1.539c-2.1,0.98-3.64,2.381-4.48,4.201
	c-0.84,1.68-0.98,3.779-0.98,3.779c-0.14,1.959-0.28,5.039-0.28,7v5.039c0,2.801,0.28,4.9,0.7,6.301c0.42,1.4,1.26,2.52,2.24,3.641
	c1.12,0.979,2.52,1.68,4.48,2.24c1.96,0.559,4.34,0.699,7,0.699c2.52,0,4.76-0.279,6.58-0.84c1.96-0.561,3.5-1.541,4.76-2.66
	c1.26-1.26,1.96-2.52,2.38-3.92s0.42-3.08,0.42-3.08c0-1.961,0.14-5.041,0.14-7v-4.621c0-2.379-0.14-4.059-0.56-5.18
	C301.105,341.74,300.405,340.621,299.285,339.5z M289.485,360.781c0,1.398-0.14,2.379-0.42,2.799c-0.28,0.42-0.7,0.701-1.4,0.701
	c-0.7,0-1.26-0.281-1.4-0.701c-0.28-0.42-0.28-0.42-0.28-0.42c-0.14-1.4-0.14-4.059-0.14-6.02V345.8c0-1.68,0.14-2.801,0.42-3.221
	c0.28-0.42,0.7-0.699,1.54-0.699c0.7,0,1.26,0.279,1.4,0.699c0.28,0.42,0.28,0.42,0.28,0.42c0,1.541,0.14,4.34,0.14,6.301v11.48
	H289.485z"/>
</svg>
