<?xml version="1.0" encoding="utf-8"?>
<!-- Generator: Adobe Illustrator 19.1.0, SVG Export Plug-In . SVG Version: 6.00 Build 0)  -->
<svg version="1.1" id="レイヤー_1" xmlns="http://www.w3.org/2000/svg" xmlns:xlink="http://www.w3.org/1999/xlink" x="0px"
	 y="0px" viewBox="0 0 72 72" style="enable-background:new 0 0 72 72;" xml:space="preserve">
<style type="text/css">
	.st0{fill:#FBB03B;}
	.st1{fill:#FFFFFF;}
</style>
<g>
	<circle class="st0" cx="36" cy="36" r="36"/>
	<g>
		<path class="st1" d="M40.7,33.1c1.2-1.9,2.2-4.3,3-7l6.3,1.4c-0.8,2.1-1.6,3.9-2.6,5.6h2.5c2.6,0,3.7,0,4.9-0.2v6.3
			c-1.5-0.2-3-0.2-5.3-0.2h-7.4c3.3,4.2,7.4,6.9,13.7,9.2c-1.7,2.2-2.5,3.5-3.7,6.2c-3.7-1.9-5.8-3.3-8.2-5.4
			c-2.2-1.9-3.5-3.4-5.2-5.8c0,0.5,0,0.5,0,1c0,0.2,0,1,0.1,2.3v4.3c0,1.5,0.1,2.8,0.3,4.4h-7c0.2-1.4,0.3-2.6,0.3-4.4v-4.2
			c0-0.9,0-2,0.1-3.4c-3,4.7-6.5,7.8-12.6,11c-1.2-2.5-2.1-3.9-3.9-6c2.3-0.9,4.7-2.2,7-3.7c2.3-1.6,4-3.2,5.8-5.4h-6.5
			c-2.3,0-3.7,0.1-5.2,0.2v-6.3c1.4,0.2,2.4,0.2,5.1,0.2h1.7c-0.7-2.3-1.1-3.2-2.3-5.5l6-1.6c1.2,2.3,1.9,4,2.5,5.9l-4.4,1.2h6.8V26
			h-8.9c-2.2,0-3.4,0-4.7,0.2v-6.3c1.4,0.2,2.8,0.2,5.1,0.2h8.5v-1c0-1.2-0.1-1.9-0.2-2.9H39c-0.1,1-0.2,1.8-0.2,3v0.9H48
			c2.4,0,3.8-0.1,5.2-0.2v6.3C51.9,26,50.7,26,48.4,26h-9.6v7.1H40.7z"/>
	</g>
</g>
</svg>
